# xmcd CD database file
#
# Track frame offsets:
#	150
#	14664
#	29886
#	40666
#	53806
#	64365
#	79633
#	96039
#	108565
#	119449
#	141972
#	159840
#	175783
#	200428
#	210020
#	224480
#	234296
#	239136
#	252073
#
# Disc length: 3537 seconds
#
# Revision: 0
# Processed by: cddbd v1.5.2PL0 Copyright (c) Steve Scherf et al.
# Submitted via: CDex 1.70beta2
#
DISCID=0b0dcf13
DTITLE=Pepper, Art - and Marty Paich Quartet - and Shelly Manne
DYEAR=1956
DGENRE=Jazz
TTITLE0=What's Right For You
TTITLE1=You And The Night and The Music
TTITLE2=Sidewinder
TTITLE3=Abstract Art
TTITLE4=Over the Rainbow
TTITLE5=All the Things You Are
TTITLE6=Pittfall
TTITLE7=Melancholy Madeline
TTITLE8=Marty's Blues
TTITLE9=Pepper Pot
TTITLE10=Besame Mucho
TTITLE11=Diane
TTITLE12=I Surrender Dear
TTITLE13=Move
TTITLE14=Sometimes I'm Happy
TTITLE15=Fascination
TTITLE16=Caravan
TTITLE17=Rhumba By Candlelight
TTITLE18=Magitos
EXTD=YEAR: 1956
EXTT0=
EXTT1=
EXTT2=
EXTT3=
EXTT4=
EXTT5=
EXTT6=
EXTT7=
EXTT8=
EXTT9=
EXTT10=
EXTT11=
EXTT12=
EXTT13=
EXTT14=
EXTT15=
EXTT16=
EXTT17=
EXTT18=
PLAYORDER=
